<svg xmlns="http://www.w3.org/2000/svg" xml:space="preserve" baseProfile="tiny" overflow="visible" version="1.2" viewBox="0 0 250 250"><switch><g><path fill="#256296" d="M214.6 128.5h-8.8c-.8-.7-.5-1.6-.9-2.5-3.5 3-7.6 3.9-12 2.6-4.4-1.3-6.9-4.5-6.9-8.8 0-4.2 2.2-7 6.6-8.4 2.9-.9 5.9-.7 8.9-1 1.1-.1 2.2-.2 3.3-.2.4-4.2-3.7-5.5-6.8-5.1-1.4.2-2.8.5-4.1.9-1.3.4-2.6 1-4 1.6-.7-1.5-1.3-3-2.2-5.1-2.8 11-11.4 11-20.1 10.8v15.1h-9.8V87.1c6.6.3 13.2-.6 19.7.6 6.3 1.1 9.4 5.2 10.3 13.2 2.3-.6 4.5-1.4 6.7-1.9 3.7-.8 7.5-.9 11.2.1 5.5 1.4 8.6 5.1 8.8 10.7.2 6.1.1 12.3.1 18.7zm-47.2-22.6c3.5-.6 7.2.8 9.4-2.7 1.3-2.1 1.3-4.5-.3-6.4-2.5-3-5.9-1.7-9.1-1.9v11zm37.4 9.8c-2.1-.3-4 .1-5.9.4-1.8.2-3.2 1.3-3.2 3.3 0 2 1.3 3.1 3.3 3.5 4.2.8 6.4-1.9 5.8-7.2z"/><path fill="#1F3863" d="M121.7 128.5h-9.8v-9.4c0-3 0-6-.2-8.9-.1-1.9-.9-3.4-3-3.7-2.2-.3-3.7.7-4.5 2.8-.6 1.7-.8 3.4-.8 5.2v14h-9.6v-14.8c0-1.4-.1-2.8-.4-4.2-.3-1.6-1.1-2.8-2.8-3-1.9-.2-3.5.3-4.4 2.1-1.1 2-1 4.2-1 6.4-.1 4.5 0 8.9 0 13.4h-9.6V99h9.2c.8.9 0 2.1.7 3.2 2.4-2.5 5.1-4.1 8.7-3.9 3.5.2 6.3 1.5 7.9 5.1 2.7-3.9 6.2-5.5 10.7-5 4.8.6 7.4 2.9 8.5 7.6.7 2.8.4 5.6.5 8.4-.1 4.7-.1 9.3-.1 14.1z"/><path fill="#1C3661" d="M1.7 87.2h9.6V103h16.5V87.3h9.7v41.1h-9.6v-17H11.4v17H1.7V87.2z"/><path fill="#276397" d="M214.7 99h9.8c2.1 6 4.3 12 6.7 18.7 2-5.8 3.9-10.8 5.6-16 .7-2.2 1.7-2.9 3.9-2.7 2.2.2 4.5 0 7.2 0-2.2 5.4-4.2 10.4-6.3 15.4-2.3 5.8-4.6 11.6-7 17.3-3.6 8.5-9 10.5-17.8 6.7.6-2.2 1.2-4.5 1.8-6.6.9-.5 1.5.1 2.2.1 1.4.1 3 .6 3.8-.9.9-1.5 1.8-2.9 1-4.9-3.4-8.1-6.7-16.2-9.9-24.3-.5-.9-1.1-1.6-1-2.8z"/><path fill="#1C3661" d="M56.6 129.2c-11.1.1-18.1-7.9-16.3-18.6 1.2-7 6.7-11.4 15.1-12.2 12.1-1 20.6 9.7 16.5 21-2 6.1-7.9 9.8-15.3 9.8zm6.5-15.6c0-4.4-2.8-7.6-6.7-7.6-3.9 0-6.6 3.2-6.6 7.6 0 4.5 2.7 7.6 6.6 7.5 4 .1 6.7-3 6.7-7.5z"/><path fill="#1D3661" d="M154.2 116.1H134c-.3 6.3 6.3 7.6 16 3.3 1.2 1.5 2.4 3.1 3.6 4.7-4.7 5.3-15.8 6.7-22.6 3-6-3.2-8.7-11.1-6.5-18.4 2.3-7.6 10.9-12 19.4-9.9 7.8 1.9 11.9 8.8 10.3 17.3zm-20.4-5.7h11.6c-.4-3.5-2.5-5.6-5.7-5.6-3.2-.1-5.5 2-5.9 5.6z"/><path fill="#F9A646" d="M121 66.7c-.5 4.6-.3 8.5.5 12.3.2.7-.1 1.2-.7 1.5-8.3 4.8-13.5 12.4-18.9 20.3-4-5.2-8.8-9.5-14.9-12.7 3.5-2.1 6.5-4 9.9-6 1.6 2.8 3.1 5.5 4.8 8.6 4.2-9.8 9.6-18.2 19.3-24z"/><g fill="#1B1464"><path d="M26.9 145.1c-1 1.3-2.4 2.2-3.8 3-1.9 1-4 1.8-6.1 2.2.1.5.4.9.8 1.3.8-.1 1.6-.2 2.4-.1.6 0 1.9.2 2.1.8.2.7-.8.8-1.3.8-1.2 0-2.5-.2-3.4-1-3 .6-5.8 1.9-7.8 4.1-1.8 2-3.3 4.6-3.3 7.3 0 1.6.8 2.9 2.2 3.7 4.7 2.4 10.9-2.4 13.7-6.1.1-.1.3 0 .2.2-1.9 2.3-3.9 4.2-6.6 5.6-2.6 1.4-6 1.9-8.6.2-3-2-2.8-5.9-1.4-8.7 1.3-2.6 3.7-4.5 6.5-5.6 1.5-.5 3.1-.9 4.7-1.1-.3-.4-.6-.8-.8-1.3l-2.4.3c-3 .2-7.3 0-9.5-2.7-1.8-2.2-1.5-5.4.7-7.4 1.1-1.1 2.7-1.9 4.3-2.1 1.5-.2 3.4.1 4.4 1.3 1.2 1.5.3 3.2-.8 4.4-.9 1-2 1.6-3 1.4-.7-.2-.8-.8-.6-1.3.3-.7 1-.9 1.6-.8-.1 0-.5.5-.4.7.2.4 1.3.5 2.2-.3 1-.8 1.8-2.6.9-3.9-.4-.6-1.2-1-1.9-1.2-3-.8-6.7 1.8-7.5 4.8-.3 1.2-.1 2.5.5 3.6 1.6 2.9 5.7 3.4 8.8 3.2.8 0 1.7-.1 2.5-.3-1.2-3.1.7-6.7 3.2-8.7 1.3-1 2.8-1.6 4.5-1.9 1.4-.2 3.2 0 4 1.3.8 1.4-.1 3.2-1 4.3zm.3-4.4c-1.2-1.2-3.2-.5-4.6.2-1.2.7-2.3 1.6-3.2 2.6-.9 1-1.7 2.2-2.2 3.5-.4 1-.5 2.1-.3 3.1 2.3-.5 4.6-1.3 6.6-2.5 1.4-.8 2.8-1.8 3.6-3.2.7-1.2 1.1-2.7.1-3.7zM18.1 152c.9.7 2 .8 3.1.8.2 0 .8-.1.7-.4-.1-.3-.6-.5-.9-.5-1.1-.2-1.9-.1-2.9.1z"/><path d="M29.7 166.7c1.7-1.7 3.4-3.7 5-5.6.1-.2.3.1.2.2-.8 1-1.8 2.1-2.6 3.1-1 1.1-2.2 2.6-3.3 3.3-.5.3-1.2.5-1.8.3-.4-.2-.7-.6-.7-1.1 0-2 2.4-4.8 3.5-7.2.1-.3 0-.5-.4-.5-.8-.2-1.9.8-2.6 1.4-1 .9-1.9 2.1-2.7 3.2-.8 1.3-1.6 2.5-2.4 3.7-.3.4-.7.7-1.2.5-.3-.2-.5-.4-.5-.7 0-.3.2-.4.3-.7 1-1.5 2-3.1 3-4.6.1-.1 1.8-2.6 1-2.6-.4 0-.8.4-1.1.6-.4.4-.6.7-1.1 1.2-.2.2-.5.2-.2-.2.4-.5.6-.8 1.3-1.5.6-.7 1.8-1.3 2.4-.5.4.6 0 1.6-.6 3 .5-.6 1-1.2 1.6-1.8.6-.5 1.1-.9 1.8-1.3 1.4-.8 2.9-.1 2.4 1.6-.8 2.2-3.7 6-3.3 6.5.5.7 1.5.1 2-.3z"/><path d="M46.1 161.1c.1-.1.3 0 .2.2-1.2 1.5-3.5 4.2-5.1 5.8-.8.7-1.8 1.4-2.6 1-1-.5-.5-1.8-.1-2.7-.8 1-1.8 2.1-3 2.6-.7.3-1.5.3-2.2-.1-.7-.5-.8-1.5-.8-2.3.1-1.5.9-3.1 1.9-4.3 1.1-1.2 2.6-2.2 4.2-2.5.8-.1 1.7 0 2.1.7.3.5.2 1.1.1 1.7.4-.6.7-1.1 1.1-1.6.2-.4.8-.5 1.2-.3.5.3.4.8.2 1.3-.6 1-1.3 2-2 3-.6.8-1.2 1.8-1.7 2.8-.5 1.2.4 1.4 1.6.3 1.5-1.6 3.6-4 4.9-5.6zm-7.4 3.3c.5-.8 1.5-2.3 1.8-3.1.2-.8 0-2-1.1-2-.8 0-1.6.5-2.2 1-1.6 1.3-3.2 3.6-3.6 5.8-.1.6 0 1.3.7 1.4.4.1.8 0 1.2-.1 1.4-.5 2.5-1.8 3.2-3z"/><path d="M59.6 145.6c-.4 1.6-1.3 3.1-2.3 4.4-1 1.4-2.1 2.8-3.2 4.1-2.2 2.5-4.6 5-7.1 7.4-.5 1.2-1.1 2.5-1.6 3.8-.2.7-.6 1.6-.2 2.3.5.7 1.5.1 2-.3.6-.5 1.2-1 1.8-1.6 1-1.1 1.9-2.2 2.8-3.4-.4-.4-.4-1.1-.3-1.6.1-.7.7-1.4 1.4-1.7.9-.3 1.3.5 1.2 1.2-.1.9-.6 1.7-1 2.4.5.1 1.5 0 2.2-.6.3-.3.6-.5.8-.8.1-.1.3 0 .2.2-.4.5-.8.9-1.4 1.2-.6.3-1.5.4-2 .3-.8 1.2-1.8 2.3-2.9 3.3-.6.5-1.3 1-2 1.5-.7.4-1.6.7-2.3.5-.8-.2-1.1-1-1.2-1.7-.2-2.4.7-4.8 1.8-7.2 2.2-4.5 4.6-8.9 7.9-13.1.8-1.1 1.9-2.2 3.2-2.9.7-.3 1.7-.7 2.2.1.3.5.2 1.5 0 2.2zm-.5-2c-.8-.7-2.3 1.2-2.8 1.7-3.5 4.8-6.4 10-9.1 15.3 1.2-1.2 2.4-2.3 3.8-3.8 2.3-2.4 4.6-5 6.5-7.8.7-.9 2.8-4.1 1.6-5.4zM51.9 162c.4-.6.9-1.2 1.2-1.8.1-.2.3-.7.1-.8-.2-.2-.7.1-.8.2-.7.5-1 1.7-.5 2.4z"/><path d="M69.7 144.7c-.1.8-.4 1.5-.7 2.3-.7 1.5-1.7 2.9-2.7 4.3-1 1.4-2.1 2.7-3.2 3.9-2.1 2.4-4.3 4.8-6.6 7.1-.7 1.5-2 4.4-1.7 4.9.4.6 1.4.2 1.9-.1 2.4-1.4 3.9-3.7 5.8-6 .1-.1.3 0 .2.2-2 2.4-3.7 5.1-6.4 6.6-.7.3-1.5.5-2.1-.1-.7-.7-.2-2.6.1-3.8 2-5.7 5.2-10.9 8.5-16 1.1-1.7 2.3-3.4 4-4.6.6-.4 1.5-.8 2.3-.6.6.3.7 1.3.6 1.9zm-.6-1.3c-.6-.7-1.6.3-1.9.7-4.2 5.3-7.3 11.4-10.4 17.3.2-.2.4-.4.6-.7 1.1-1.1 2.2-2.3 3.2-3.4 2.2-2.5 4.5-5.1 6.4-7.8.9-1.3 1.9-2.8 2.2-4.4.2-.4.3-1.2-.1-1.7z"/><path d="M65.5 164.4c-1.1 1.2-2.3 2.7-3.5 3.5-.4.3-1.2.5-1.8.1-.4-.4-.4-1-.2-1.5.7-1.6 1.6-3.4 2.5-5.1-.1.1-.4 0-.2-.2.4-.5.7-1 1.1-1.6.2-.3.4-.6.6-.7.5-.2 1.1.1 1.1.7 0 .2-.3.7-.5 1-1.1 1.9-2.4 3.9-3.4 5.8-.3.5-.3 1.2.6 1 .4-.2.7-.3 1-.6 1.7-1.7 3.4-3.7 5-5.6.1-.2.3.1.2.2-.7.9-1.6 2-2.5 3zm0-9.5c.2-.4.8-.7 1.2-.5.4.2.6.7.3 1.2-.2.5-.8.7-1.2.5-.5-.1-.6-.7-.3-1.2z"/><path d="M75.5 166.7c1.7-1.7 3.4-3.7 5-5.6.1-.2.3.1.2.2-.8 1-1.8 2.1-2.6 3.1-1 1.1-2.2 2.6-3.3 3.3-.5.3-1.2.5-1.8.3-.4-.2-.7-.6-.7-1.1 0-2 2.4-4.8 3.5-7.2.1-.3 0-.5-.4-.5-.8-.2-1.9.8-2.6 1.4-1 .9-1.9 2.1-2.7 3.2-.8 1.3-1.6 2.5-2.4 3.7-.3.4-.7.7-1.2.5-.3-.2-.5-.4-.5-.7 0-.3.2-.4.3-.7 1-1.5 2-3.1 3-4.6.1-.1 1.8-2.6 1-2.6-.4 0-.8.4-1.1.6-.4.4-.6.7-1.1 1.2-.2.2-.5.2-.2-.2.4-.5.6-.8 1.3-1.5.6-.7 1.8-1.3 2.4-.5.4.6 0 1.6-.6 3 .5-.6 1-1.2 1.6-1.8.6-.5 1.1-.9 1.8-1.3 1.4-.8 2.9-.1 2.4 1.6-.8 2.2-3.7 6-3.3 6.5.5.7 1.6.1 2-.3z"/><path d="M91.6 161.3c-2.2 2.6-4.5 5.3-7.5 7-1.8 3.2-3.6 6.5-5.7 9.5-1 1.5-4.1 5.9-6.6 5.4-1.8-.3-1.2-2.8-.7-3.9.5-1.2 1.3-2.4 2.1-3.5 2-2.5 4.8-4.3 7.5-5.9.4-.2.7-.4 1-.6.6-1 1.1-2 1.8-3.4-.6.8-1.4 1.5-2.4 1.9-.7.3-1.6.3-2.2-.1-.7-.5-.8-1.5-.8-2.3.1-1.5.9-3.1 1.9-4.3 1-1.2 2.6-2.2 4.2-2.5.8-.1 1.6 0 2.1.7.2.4.2.9.2 1.3.3-.5.5-1 .9-1.5.5-.3 1.3 0 1.4.5 0 .2-.3.9-.6 1.3-.6 1-1.3 2.1-1.8 3.1-.7 1.2-1.4 2.3-2.1 3.5 2.6-1.7 5.1-4.3 7-6.7.1.2.4.3.3.5zm-10.1 8.6c-1.8 1.1-3.6 2.1-5.2 3.5-1.1.9-2.1 2-3 3.1-1 1.4-2.6 3.8-2.2 5.7.2.9 1.1.9 1.9.6 1.1-.5 1.8-1.9 2.5-2.9 1.9-2.8 3.6-5.7 5.2-8.6.3-.5.5-.9.8-1.4zm2.8-5.3c.4-.7 2-3.5 2-3.9 0-.7-.3-1.4-1.2-1.4-.8 0-1.6.5-2.2 1-1.5 1.3-3.2 3.6-3.6 5.8-.2 1.2.7 1.6 1.9 1.3 1.4-.5 2.4-1.7 3.1-2.8zM112.4 151.3c-2.2 1.1-5 .6-7.4.7-2.4 3.7-4.6 7.6-7 12.3-.1.3-1.6 3.6-.4 3 .4-.2.8-.5 1.2-.8 1.7-1.6 3.3-3.5 4.8-5.3.1-.2.3.1.2.2-1.4 1.6-2.8 3.3-4.3 4.9-.6.6-1 1.1-1.8 1.6-.2.2-1 .5-1.4.3-.6-.3-.6-1.2-.5-1.7.2-1.5 1-3 1.6-4.4 1.6-3.4 3.6-6.7 5.7-10-1.4 0-2.8 0-4.2.2-.1 0-.2-.1-.1-.2 1.5-.5 3-.6 4.6-.6 1.8-2.8 3.6-5.6 5.4-8.3.4-.5 1.4-.1 1.2.5-.1.2-.4.7-.5.9-1.5 2.3-2.9 4.6-4.3 6.9 1.2 0 2.3.1 3.4.2 1.2 0 2.4 0 3.6-.4.4-.3.5-.2.2 0z"/><path d="M116.2 148.6c-2.8 4.3-7.1 8.9-11.1 12.5-.4.8-.8 1.5-1.2 2.3.8-.9 1.8-1.9 2.7-2.7.6-.6 1.3-1.1 2.1-1.5.6-.3 1.5-.7 2.2-.3 1.1.8.4 2.4-.1 3.3-.8 1.3-2.1 2.9-2.9 4.5-.4.8.4 1 1.2.3 2.1-1.8 3.8-3.7 5.6-5.9.1-.1.3 0 .2.2-1.8 2.2-3.7 4.4-5.9 6.2-.6.4-1.5 1-2.2.4-.4-.3-.4-.9-.3-1.3.4-1.9 2.2-4.1 3.2-5.9 1.4-2.5-1.7-.7-2.5 0-1.4 1.2-2.9 2.8-4 4.3-.4.9-1 1.8-1.5 2.7-.6 1.1-1.7.4-1.3-.4 2.7-5.8 5.7-11.5 9.1-17 1.6-2.3 3-4.9 5.2-6.7.6-.4 1.4-.9 2.2-.9.9 0 1.2.7 1.2 1.4-.2 1.6-1.1 3.1-1.9 4.5zm1.3-5c-.7-1.6-3.5 2.3-3.8 2.7-1.8 2.8-3.4 5.6-5.1 8.5-1.1 1.9-2.1 3.7-3.1 5.6 2.2-2 4.2-4.1 6.2-6.4 1.1-1.3 2.2-2.6 3.2-4 .7-1.1 3.3-4.8 2.6-6.4z"/><path d="M123.5 161.3c-1.9 2.3-3.8 4.8-6.5 6.2-1.1.6-2.6 1-3.6.1-1.4-1.2-1.1-3.4-.1-5.1.8-1.4 2.1-2.5 3.6-3.3 1.5-.7 2.5-.6 2.7-.5.4.1.9.3 1.2.6.5.5.4 1.4-.1 2.1-.5.6-1.6 1.6-3.8 2.2-.6.2-1.6.2-2.3.2-.4 1.1-1.4 3.1.4 3.6 1.3.2 2.5-.7 3.5-1.4 1.1-.9 2.2-2 3.1-3 .4-.5.8-1 1.3-1.5l.4-.5c.1 0 .3.2.2.3zm-8.8 2.4c.4 0 .9 0 1.2-.1 2.7-.2 4.8-3.5 4-4.3-.1-.1-.4-.2-.6-.2-.8 0-1.6.5-2.1 1-1 1.1-1.9 2.2-2.5 3.6zM141.1 161.1c.1-.1.3 0 .2.2-1.1 1.3-3.1 3.7-4.6 5.3-.6.7-2 2-2.8 1.5-.8-.7-.4-1.9-.2-2.8-.9 1.1-1.8 2.2-3.1 2.7-.7.3-1.5.3-2.2-.1-.7-.5-.8-1.5-.8-2.3.1-1.5.8-3 1.8-4.1 1.1-1.2 2.6-2.4 4.3-2.6.8-.1 1.7 0 2.1.7.2.3.2.7.2 1.1 3.2-5.9 6.6-11.5 10.6-17.1.2-.2.3-.5.5-.6.6-.3 1.2.3.8.9-2.6 3.9-5.2 7.9-7.5 12-1.8 3.3-3.9 6.6-5.4 10.1-.5 1.2 0 1.8 1.9 0 1.4-1.6 3.1-3.5 4.2-4.9zm-6.6-1.8c-2.4 0-5.3 4.6-5.7 6.9-.1.6 0 1.3.7 1.4.4.1.8 0 1.2-.1 1.4-.5 2.4-1.8 3.1-2.9l1.5-2.8c.4-.8.7-2.5-.8-2.5z"/><path d="M144.3 164.4c-1.1 1.2-2.3 2.7-3.5 3.5-.4.3-1.2.5-1.8.1-.4-.4-.4-1-.2-1.5.7-1.6 1.6-3.4 2.5-5.1-.1.1-.4 0-.2-.2.4-.5.7-1 1.1-1.6.2-.3.4-.6.6-.7.5-.2 1.1.1 1.1.7 0 .2-.3.7-.5 1-1.1 1.9-2.4 3.9-3.4 5.8-.3.5-.3 1.2.6 1 .4-.2.7-.3 1-.6 1.7-1.7 3.4-3.7 5-5.6.1-.2.3.1.2.2-.7.9-1.6 2-2.5 3zm-.1-9.5c.2-.4.8-.7 1.2-.5.4.2.6.7.3 1.2-.2.5-.8.7-1.2.5-.4-.1-.6-.7-.3-1.2z"/><path d="M157.8 161.3c-2.2 2.6-4.5 5.3-7.5 7-1.8 3.2-3.6 6.5-5.7 9.5-1 1.5-4.1 5.9-6.6 5.4-1.8-.3-1.2-2.8-.7-3.9.5-1.2 1.3-2.4 2.1-3.5 2-2.5 4.8-4.3 7.5-5.9.4-.2.7-.4 1-.6.6-1 1.1-2 1.8-3.4-.6.8-1.4 1.5-2.4 1.9-.7.3-1.6.3-2.2-.1-.7-.5-.8-1.5-.8-2.3.1-1.5.9-3.1 1.9-4.3 1-1.2 2.6-2.2 4.2-2.5.8-.1 1.6 0 2.1.7.2.4.2.9.2 1.3.3-.5.5-1 .9-1.5.5-.3 1.3 0 1.4.5 0 .2-.3.9-.6 1.3-.6 1-1.3 2.1-1.8 3.1-.7 1.2-1.4 2.3-2.1 3.5 2.6-1.7 5.1-4.3 7-6.7.2.2.4.3.3.5zm-10.1 8.6c-1.8 1.1-3.6 2.1-5.2 3.5-1.1.9-2.1 2-3 3.1-1 1.4-2.6 3.8-2.2 5.7.2.9 1.1.9 1.9.6 1.1-.5 1.8-1.9 2.5-2.9 1.9-2.8 3.6-5.7 5.2-8.6.3-.5.5-.9.8-1.4zm2.8-5.3c.4-.7 2-3.5 2-3.9 0-.7-.3-1.4-1.2-1.4-.8 0-1.6.5-2.2 1-1.5 1.3-3.2 3.6-3.6 5.8-.2 1.2.7 1.6 1.9 1.3 1.4-.5 2.4-1.7 3.1-2.8z"/><path d="M160.7 164.4c-1.1 1.2-2.3 2.7-3.5 3.5-.4.3-1.2.5-1.8.1-.4-.4-.4-1-.2-1.5.7-1.6 1.6-3.4 2.5-5.1-.1.1-.4 0-.2-.2.4-.5.7-1 1.1-1.6.2-.3.4-.6.6-.7.5-.2 1.1.1 1.1.7 0 .2-.3.7-.5 1-1.1 1.9-2.4 3.9-3.4 5.8-.3.5-.3 1.2.6 1 .4-.2.7-.3 1-.6 1.7-1.7 3.4-3.7 5-5.6.1-.2.3.1.2.2-.7.9-1.6 2-2.5 3zm0-9.5c.2-.4.8-.7 1.2-.5.4.2.6.7.3 1.2-.2.5-.8.7-1.2.5-.5-.1-.6-.7-.3-1.2z"/><path d="M177.6 151.3c-2.2 1.1-5 .6-7.4.7-2.4 3.7-4.6 7.6-7 12.3-.1.3-1.6 3.6-.4 3 .4-.2.8-.5 1.2-.8 1.7-1.6 3.3-3.5 4.8-5.3.1-.2.3.1.2.2-1.4 1.6-2.8 3.3-4.3 4.9-.6.6-1 1.1-1.8 1.6-.2.2-1 .5-1.4.3-.6-.3-.6-1.2-.5-1.7.2-1.5 1-3 1.6-4.4 1.6-3.4 3.6-6.7 5.7-10-1.4 0-2.8 0-4.2.2-.1 0-.2-.1-.1-.2 1.5-.5 3-.6 4.6-.6 1.8-2.8 3.6-5.6 5.4-8.3.4-.5 1.4-.1 1.2.5-.1.2-.4.7-.5.9-1.5 2.3-2.9 4.6-4.3 6.9 1.2 0 2.3.1 3.4.2 1.2 0 2.4 0 3.6-.4.4-.3.6-.2.2 0z"/><path d="M180.3 161.1c.1-.1.3 0 .2.2-1.2 1.5-3.5 4.2-5.1 5.8-.8.7-1.8 1.4-2.6 1-1-.5-.5-1.8-.1-2.7-.8 1-1.8 2.1-3 2.6-.7.3-1.5.3-2.2-.1-.7-.5-.8-1.5-.8-2.3.1-1.5.9-3.1 1.9-4.3 1.1-1.2 2.6-2.2 4.2-2.5.8-.1 1.7 0 2.1.7.3.5.2 1.1.1 1.7.4-.6.7-1.1 1.1-1.6.2-.4.8-.5 1.2-.3.5.3.4.8.2 1.3-.6 1-1.3 2-2 3-.6.8-1.2 1.8-1.7 2.8-.5 1.2.4 1.4 1.6.3 1.5-1.6 3.6-4 4.9-5.6zm-7.4 3.3c.5-.8 1.5-2.3 1.8-3.1.2-.8 0-2-1.1-2-.8 0-1.6.5-2.2 1-1.6 1.3-3.2 3.6-3.6 5.8-.1.6 0 1.3.7 1.4.4.1.8 0 1.2-.1 1.4-.5 2.5-1.8 3.2-3z"/><path d="M193.9 144.7c-.1.8-.4 1.5-.7 2.3-.7 1.5-1.7 2.9-2.7 4.3-1 1.4-2.1 2.7-3.2 3.9-2.1 2.4-4.3 4.8-6.6 7.1-.7 1.5-2 4.4-1.7 4.9.4.6 1.4.2 1.9-.1 2.4-1.4 3.9-3.7 5.8-6 .1-.1.3 0 .2.2-2 2.4-3.7 5.1-6.4 6.6-.7.3-1.5.5-2.1-.1-.7-.7-.2-2.6.1-3.8 2-5.7 5.2-10.9 8.5-16 1.1-1.7 2.3-3.4 4-4.6.6-.4 1.5-.8 2.3-.6.6.3.7 1.3.6 1.9zm-.6-1.3c-.6-.7-1.6.3-1.9.7-4.2 5.3-7.3 11.4-10.4 17.3.2-.2.4-.4.6-.7 1.1-1.1 2.2-2.3 3.2-3.4 2.2-2.5 4.5-5.1 6.4-7.8.9-1.3 1.9-2.8 2.2-4.4.2-.4.3-1.2-.1-1.7zM207.1 147.1c-.7 1.5-1.7 2.9-2.7 4.3-1 1.3-2.1 2.6-3.2 3.9-2 2.3-4.2 4.6-6.6 6.6-1.6 3-3.3 5.9-4.8 8.9-1.7 3.4-3.6 6.9-4.6 10.6-.1.3-.2.8 0 1.1.6.8 4.6-4.2 5-4.6 2.1-2.7 4-5.6 5.2-8.7.6-1.4 1.1-2.8 1.3-4.3-.4.1-.7.1-1.1 0-.8-.2-1.1-1-.8-1.7.2-.6.9-1.3 1.6-1 .8.4.8 1.5.7 2.3 1.6-.6 2.9-2 3.9-3.3.1-.1.3 0 .2.2-1.1 1.3-2.4 2.8-4.1 3.4-.2 1.5-.8 3-1.3 4.4-1.3 3.2-3.2 6.1-5.3 8.8-1 1.3-2.2 2.7-3.4 3.9-.4.4-1.4 1.2-1.8 1.2-.6 0-.9-.8-.9-1.4.1-3.4 1.8-6.6 3.1-9.7 1.5-3.3 3.1-6.5 4.8-9.6 1.7-3.1 3.4-6.1 5.2-9.1 1.8-2.9 3.6-5.9 5.8-8.5.8-.9 3.1-2.6 4.2-1.5.8.8.1 2.8-.4 3.8zm-11.6 17.3c.4.2.9.2 1.3 0 .1-.5.2-1.7-.4-2-.4-.2-.7.1-1 .3-.2.3-.4.7-.4 1 .1.4.2.6.5.7zm11.4-21c-1.4-.3-3.5 3.3-4.1 4.3-2.5 4.2-4.9 8.4-7.7 13.4 1.1-1 2.2-2 3.5-3.3 2.3-2.4 4.5-4.9 6.4-7.7 1-1.4 2-2.9 2.4-4.5.1-.6.3-2-.5-2.2z"/><path d="M203.4 158.8c.5.1.8.6.6 1-.2.4-.5.8-.7 1.2-1.1 1.8-2.6 3.5-3.3 5.6-.2.5.1.8.5.9 1.2.2 2.3-1 3-1.8.8-.9 1.6-1.9 2.4-3 .6-1 1.3-2.1 2-3.1.2-.4.6-.9 1.1-.9.6 0 1 .7.7 1.2-1 1.8-2.4 3.5-3.4 5.3-.2.4-1.5 2.2-.3 2.1.5 0 1-.4 1.4-.7 1.6-1.6 3.7-3.9 5-5.6.1-.1.3 0 .2.2-1.2 1.5-3.5 4.2-5.1 5.8-.6.5-1.3 1-2.2 1.1-1.9-.2-.7-2.7-.2-3.6-.4.5-.8 1-1.3 1.5-.9 1-2.2 2.2-3.7 2.1-1.8-.1-1.2-2.2-.8-3.2.5-1.2 1.2-2.4 1.9-3.6 0 0-.1-.1 0-.3.4-.5.8-1.1 1.3-1.8.1-.3.4-.5.9-.4z"/><path d="M226.7 151.3c-2.2 1.1-5 .6-7.4.7-2.4 3.7-4.6 7.6-7 12.3-.1.3-1.6 3.6-.4 3 .4-.2.8-.5 1.2-.8 1.7-1.6 3.3-3.5 4.8-5.3.1-.2.3.1.2.2-1.4 1.6-2.8 3.3-4.3 4.9-.6.6-1 1.1-1.8 1.6-.2.2-1 .5-1.4.3-.6-.3-.6-1.2-.5-1.7.2-1.5 1-3 1.6-4.4 1.6-3.4 3.6-6.7 5.7-10-1.4 0-2.8 0-4.2.2-.1 0-.2-.1-.1-.2 1.5-.5 3-.6 4.6-.6 1.8-2.8 3.6-5.6 5.4-8.3.4-.5 1.4-.1 1.2.5-.1.2-.4.7-.5.9-1.5 2.3-2.9 4.6-4.3 6.9 1.2 0 2.3.1 3.4.2 1.2 0 2.4 0 3.6-.4.4-.3.5-.2.2 0z"/><path d="M220.2 158.8c.5.1.8.6.6 1-.2.4-.5.8-.7 1.2-1.1 1.8-2.6 3.5-3.3 5.6-.2.5.1.8.5.9 1.2.2 2.3-1 3-1.8.8-.9 1.6-1.9 2.4-3 .6-1 1.3-2.1 2-3.1.2-.4.6-.9 1.1-.9.6 0 1 .7.7 1.2-1 1.8-2.4 3.5-3.4 5.3-.2.4-1.5 2.2-.3 2.1.5 0 1-.4 1.4-.7 1.6-1.6 3.7-3.9 5-5.6.1-.1.3 0 .2.2-1.2 1.5-3.5 4.2-5.1 5.8-.6.5-1.3 1-2.2 1.1-1.9-.2-.7-2.7-.2-3.6-.4.5-.8 1-1.3 1.5-.9 1-2.2 2.2-3.7 2.1-1.8-.1-1.2-2.2-.8-3.2.5-1.2 1.2-2.4 1.9-3.6 0 0-.1-.1 0-.3.4-.5.8-1.1 1.3-1.8.1-.3.4-.5.9-.4z"/><path d="M237.6 161.3c-1.4 1.7-3.8 4.7-5.8 6.2-.5.4-1.2.8-1.9.6-1.5-.4-.4-3.2.1-4 .6-1.2 1.4-2.3 2.2-3.4-.8-.2-1.5-.2-2.2-.6-.3.5-.6.9-.8 1.2-.2.2-.4.1-.2-.2.2-.3.5-.7.8-1.1-.4-.3-.5-.7-.4-1.2 0-.2.2-.6.4-.8.2-.2.6-.3.8 0 .2.6-.1 1.3-.4 1.9.8.3 1.8.2 2.6-.1.3-.1.6-.3.9-.3.3 0 .6.2.7.4.2.3.1.6-.1.8-.3.3-.5.7-.8 1-1.1 1.4-2.2 3-3.1 4.5-.2.3-.7 1.3-.3 1.5.4.2 1-.2 1.3-.4 2-1.4 4.5-4.4 5.9-6.2.3-.1.5.1.3.2zm-7.2-3.3c-.2-.2-.6.4-.6.5-.2.4-.2.9.2 1.2.2-.2.8-1.3.4-1.7z"/><path d="M246.4 161.3c-1.9 2.3-3.8 4.8-6.5 6.2-1.1.6-2.6 1-3.6.1-1.4-1.2-1.1-3.4-.1-5.1.8-1.4 2.1-2.5 3.6-3.3 1.5-.7 2.5-.6 2.7-.5.4.1.9.3 1.2.6.5.5.4 1.4-.1 2.1-.5.6-1.6 1.6-3.8 2.2-.6.2-1.6.2-2.3.2-.4 1.1-1.4 3.1.4 3.6 1.3.2 2.5-.7 3.5-1.4 1.1-.9 2.2-2 3.1-3 .4-.5.8-1 1.3-1.5l.4-.5c.1 0 .3.2.2.3zm-8.8 2.4c.4 0 .9 0 1.2-.1 2.7-.2 4.8-3.5 4-4.3-.1-.1-.4-.2-.6-.2-.8 0-1.6.5-2.1 1-1 1.1-1.9 2.2-2.5 3.6z"/></g></g></switch></svg>